<?xml version="1.0" standalone="no"?>
<!DOCTYPE svg PUBLIC "-//W3C//DTD SVG 20010904//EN"
 "http://www.w3.org/TR/2001/REC-SVG-20010904/DTD/svg10.dtd">
<svg version="1.0" xmlns="http://www.w3.org/2000/svg"
 width="85.000000pt" height="79.000000pt" viewBox="0 0 85.000000 79.000000"
 preserveAspectRatio="xMidYMid meet">

<g transform="translate(0.000000,79.000000) scale(0.100000,-0.100000)"
fill="#ffffff" stroke="none">
<path d="M385 715 c-22 -13 -57 -32 -78 -41 -24 -10 -39 -25 -43 -40 -5 -21
-11 -24 -38 -19 -24 4 -50 -5 -111 -37 l-80 -43 0 -120 0 -120 198 -102 198
-102 85 42 c71 35 86 47 91 70 4 21 10 26 22 21 9 -3 23 -8 31 -10 21 -5 174
78 178 96 1 8 -89 107 -205 222 l-208 207 -40 -24z m385 -387 c0 -4 -23 -19
-51 -34 l-52 -26 -118 118 -119 119 0 -44 0 -43 -40 7 c-30 5 -40 3 -40 -7 0
-7 43 -56 95 -108 52 -52 95 -97 95 -100 0 -3 -24 -17 -53 -32 l-53 -26 -167
173 c-92 95 -167 176 -167 179 0 3 23 17 51 32 46 23 56 25 95 15 67 -17 74
-15 74 22 0 42 7 51 60 81 l45 26 173 -173 c94 -94 172 -175 172 -179z"/>
</g>
</svg>
