<?xml version="1.0" standalone="no"?>
<!DOCTYPE svg PUBLIC "-//W3C//DTD SVG 20010904//EN"
 "http://www.w3.org/TR/2001/REC-SVG-20010904/DTD/svg10.dtd">
<svg version="1.0" xmlns="http://www.w3.org/2000/svg"
 width="143.000000pt" height="138.000000pt" viewBox="0 0 143.000000 138.000000"
 preserveAspectRatio="xMidYMid meet">

<g transform="translate(0.000000,138.000000) scale(0.100000,-0.100000)"
fill="#000000" stroke="none">
<path d="M628 1134 c-38 -19 -68 -41 -68 -49 0 -10 -11 -15 -32 -15 -18 0 -60
-15 -93 -33 l-60 -32 -3 -75 c-2 -41 -1 -84 2 -95 4 -14 52 -43 166 -100 l161
-80 67 35 c48 25 68 41 70 57 3 20 6 21 24 12 17 -9 33 -6 89 22 38 18 70 38
73 44 2 7 -71 87 -162 178 l-167 166 -67 -35z m210 -147 c73 -74 132 -137 132
-140 0 -4 -19 -16 -41 -28 l-42 -21 -93 93 -94 94 0 -34 c0 -31 -2 -33 -30
-29 -17 3 -33 2 -35 -2 -2 -4 30 -40 70 -80 41 -41 75 -80 75 -86 0 -6 -18
-19 -41 -29 l-40 -19 -135 135 c-74 73 -134 136 -134 139 0 3 20 16 44 28 36
17 51 19 78 12 52 -15 58 -13 58 23 0 29 5 36 43 54 23 12 44 22 47 22 3 1 65
-59 138 -132z"/>
<path d="M130 401 l0 -141 70 0 70 0 0 104 0 103 -62 34 c-35 19 -66 36 -70
37 -5 2 -8 -60 -8 -137z"/>
<path d="M348 503 l-68 -37 0 -103 0 -103 70 0 70 0 0 140 c0 77 -1 140 -2
140 -2 0 -33 -17 -70 -37z"/>
<path d="M431 400 l0 -140 119 0 119 0 0 140 0 140 -119 0 -119 0 0 -140z"/>
<path d="M680 400 l0 -140 70 0 70 0 0 140 0 140 -70 0 -70 0 0 -140z"/>
<path d="M830 400 l0 -140 70 0 70 0 0 140 0 140 -70 0 -70 0 0 -140z"/>
<path d="M980 400 l0 -140 36 0 c28 0 44 8 70 34 32 32 34 37 34 106 0 69 -2
74 -34 106 -26 26 -42 34 -70 34 l-36 0 0 -140z"/>
<path d="M1130 400 l0 -140 70 0 70 0 0 140 0 140 -70 0 -70 0 0 -140z"/>
</g>
</svg>
